# xmcd CD database file
#
# Track frame offsets:
#	150
#	27206
#	53415
#	86748
#	115026
#	144848
#	175650
#	225926
#	260999
#	293070
#
# Disc length: 4518 seconds
#
# Revision: 0
# Processed by: cddbd v1.5.2PL0 Copyright (c) Steve Scherf et al.
# Submitted via: CDex 1.51
#
DISCID=7911a40a
DTITLE=Paul Avgerinos - Bliss
DYEAR=2011
DGENRE=New Age
TTITLE0=Bliss Is
TTITLE1=Contentment
TTITLE2=Fertile Soil Of Peace
TTITLE3=Flowering Of Grace
TTITLE4=Lightness Of Being
TTITLE5=The Clear Light
TTITLE6=Gate Of Heaven
TTITLE7=Spirit's Breath
TTITLE8=Waters Of Life
TTITLE9=Stillness
EXTD=YEAR: 2011
EXTT0=
EXTT1=
EXTT2=
EXTT3=
EXTT4=
EXTT5=
EXTT6=
EXTT7=
EXTT8=
EXTT9=
PLAYORDER=
